<svg width="512" height="512" viewBox="0 0 512 512" fill="none" xmlns="http://www.w3.org/2000/svg">
    <rect width="512" height="512" rx="128" fill="#FF6600"/>
    
    <path d="M130 110H200C208.8 110 216 117.2 216 126V386C216 394.8 208.8 402 200 402H130C121.2 402 114 394.8 114 386V126C114 117.2 121.2 110 130 110Z" fill="white"/>
    
    <path d="M250 110H280C375 110 430 175 430 256C430 337 375 402 280 402H250C241.2 402 234 394.8 234 386V126C234 117.2 241.2 110 250 110ZM280 342C330 342 365 305 365 256C365 207 330 170 280 170H276V342H280Z" fill="white"/>
</svg>